PathFileType	4	(X/Y/Z)	Kane _Static
DataRate	CameraRate	NumFrames	NumMarkers	Units	OrigDataRate	OrigDataStartFrame	OrigNumFrames
250	250	5	66	mm	250	11	200
Frame#	Time	LASI			RASI			LPSI			RPSI			C7			T10			CLAV			STRN			RTH1			RTH2			RTH3			RTB1			RTB2			RTB3			RCAL			RMT1			RMT2			LTH1			LTH2			LTH3			LTB1			LTB2			LTB3			LCAL			LMT1			LMT2			RLFC			RMFC			LLFC			LMFC			RMMAL			RLMAL			LMMAL			LLMAL			G_LCAL			G_LMT1			G_LMT2			G_RCAL			G_RMT1			G_RMT2			LAJC			LKJC			OPelvis			RAJC			RKJC			Reg_LHJC			Reg_RHJC			SACR			fun_LAJC			fun_LHJC			fun_LKJC			fun_LLAJC			fun_LLKJC			fun_LMAJC			fun_LMKJC			fun_RAJC			fun_RHJC			fun_RKJC			fun_RLAJC			fun_RLKJC			fun_RMAJC			fun_RMKJC			RHJC			LHJC			G_RAJC			G_LAJC		
		X1	Y1	Z1	X2	Y2	Z2	X3	Y3	Z3	X4	Y4	Z4	X5	Y5	Z5	X6	Y6	Z6	X7	Y7	Z7	X8	Y8	Z8	X9	Y9	Z9	X10	Y10	Z10	X11	Y11	Z11	X12	Y12	Z12	X13	Y13	Z13	X14	Y14	Z14	X15	Y15	Z15	X16	Y16	Z16	X17	Y17	Z17	X18	Y18	Z18	X19	Y19	Z19	X20	Y20	Z20	X21	Y21	Z21	X22	Y22	Z22	X23	Y23	Z23	X24	Y24	Z24	X25	Y25	Z25	X26	Y26	Z26	X27	Y27	Z27	X28	Y28	Z28	X29	Y29	Z29	X30	Y30	Z30	X31	Y31	Z31	X32	Y32	Z32	X33	Y33	Z33	X34	Y34	Z34	X35	Y35	Z35	X36	Y36	Z36	X37	Y37	Z37	X38	Y38	Z38	X39	Y39	Z39	X40	Y40	Z40	X41	Y41	Z41	X42	Y42	Z42	X43	Y43	Z43	X44	Y44	Z44	X45	Y45	Z45	X46	Y46	Z46	X47	Y47	Z47	X48	Y48	Z48	X49	Y49	Z49	X50	Y50	Z50	X51	Y51	Z51	X52	Y52	Z52	X53	Y53	Z53	X54	Y54	Z54	X55	Y55	Z55	X56	Y56	Z56	X57	Y57	Z57	X58	Y58	Z58	X59	Y59	Z59	X60	Y60	Z60	X61	Y61	Z61	X62	Y62	Z62	X63	Y63	Z63	X64	Y64	Z64	X65	Y65	Z65	X66	Y66	Z66	
0	0	567.604902	1038.361545	-664.668401	565.391881	1037.991017	-458.556888	396.698993	1110.707381	-617.929712	394.298857	1105.843932	-506.032204	406.658924	1539.257031	-563.582307	384.089924	1303.738424	-562.893098	542.223070	1495.250987	-559.692398	611.298018	1324.144166	-557.316005	485.027606	899.038225	-388.198759	576.183994	792.144639	-457.720008	483.623828	695.300176	-386.837509	468.126504	413.248378	-480.742933	412.192671	332.162654	-377.182720	435.186108	222.185466	-461.326529	312.418439	 57.154828	-438.282718	553.958956	 59.593084	-431.130221	527.888980	 56.002840	-352.180627	449.774706	862.880581	-746.469048	549.686099	748.058811	-710.754047	427.309676	665.088117	-737.506832	460.071371	416.797363	-669.689064	386.622450	338.693979	-764.117695	423.802219	222.087105	-682.460789	302.173225	 60.582466	-702.985702	548.101224	 54.417789	-701.435826	515.900867	 52.309469	-794.795361	470.245197	503.077627	-413.176262	482.058273	489.689321	-515.872547	438.782527	511.776199	-727.435303	453.601256	508.948757	-625.665897	414.647855	107.400065	-471.930812	393.384373	108.609827	-384.965932	425.293593	118.622523	-676.988728	377.631639	109.548068	-757.790844	302.173225	  0.000000	-702.985702	548.101224	  0.000000	-701.435826	515.900867	  0.000000	-794.795361	312.418439	  0.000000	-438.282718	553.958956	  0.000000	-431.130221	527.888980	  0.000000	-352.180627	401.462616	114.085295	-717.389786	446.191891	510.362478	-676.550600	566.498421	1038.176284	-561.612676	404.016098	108.004942	-428.448358	476.151735	496.383474	-464.524405	496.326230	996.233579	-632.027786	495.764359	995.597135	-492.147796	395.498923	1108.275655	-561.980955	385.361416	119.541525	-708.505062	486.018890	952.024825	-661.258669	446.191907	510.362478	-676.550630	372.858084	115.790633	-755.676522	438.782527	511.776199	-727.435303	397.864749	123.292417	-661.333601	453.601256	508.948757	-625.665897	397.566147	104.988776	-429.983454	485.440213	949.195330	-473.088506	476.151751	496.383491	-464.524402	386.147712	101.596533	-386.637763	470.245197	503.077627	-413.176262	408.984584	108.381019	-473.329178	482.058273	489.689321	-515.872547	485.440213	949.195330	-473.088506	486.018890	952.024825	-661.258669	404.016098	  0.000000	-428.448358	401.462616	  0.000000	-717.389786	
1	0.004	567.507093	1038.377856	-664.679453	565.368237	1038.003243	-458.568206	396.607572	1110.696192	-617.899714	394.256939	1105.831300	-506.000515	406.517285	1539.256867	-563.577374	383.991388	1303.716850	-562.863673	542.082516	1495.244052	-559.723270	611.198179	1324.165009	-557.357266	485.025377	899.035762	-388.197460	576.169374	792.149660	-457.733589	483.632139	695.297274	-386.837148	468.134082	413.243660	-480.740728	412.196086	332.157454	-377.183509	435.186095	222.178003	-461.324589	312.414321	 57.155243	-438.284254	553.958765	 59.595405	-431.131769	527.891852	 55.998632	-352.195496	449.686464	862.878425	-746.452757	549.639576	748.068855	-710.768910	427.269243	665.080680	-737.493398	460.075086	416.785531	-669.683782	386.616241	338.682568	-764.109882	423.796418	222.079606	-682.465925	302.168735	 60.574011	-702.978508	548.098781	 54.421363	-701.436886	515.902459	 52.314635	-794.798459	470.256683	503.075261	-413.173345	482.050612	489.688124	-515.871951	438.781819	511.767851	-727.431448	453.629700	508.939226	-625.666393	414.645348	107.398451	-471.931197	393.390861	108.611604	-384.981877	425.277366	118.615092	-676.985305	377.626609	109.563816	-757.822314	302.168735	  0.000000	-702.978508	548.098781	  0.000000	-701.436886	515.902459	  0.000000	-794.798459	312.414321	  0.000000	-438.284254	553.958765	  0.000000	-431.131769	527.891852	  0.000000	-352.195496	401.451987	114.089454	-717.403809	446.205760	510.353539	-676.548921	566.437693	1038.190553	-561.623858	404.018090	108.005024	-428.456524	476.153648	496.381693	-464.522648	496.254953	996.235542	-632.020025	495.728888	995.602394	-492.139968	395.432254	1108.263745	-561.950113	385.347236	119.532739	-708.520081	485.944857	952.025282	-661.247570	446.205774	510.353539	-676.548948	372.838703	115.785085	-755.697200	438.781819	511.767851	-727.431448	397.855768	123.280393	-661.342959	453.629700	508.939226	-625.666393	397.564481	104.985069	-429.991944	485.417753	949.198973	-473.077340	476.153662	496.381708	-464.522646	386.147272	101.593842	-386.654605	470.256683	503.075261	-413.173345	408.981690	108.376296	-473.329312	482.050612	489.688124	-515.871951	485.417753	949.198973	-473.077340	485.944857	952.025282	-661.247570	404.018090	  0.000000	-428.456524	401.451987	  0.000000	-717.403809	
2	0.008	567.405925	1038.394623	-664.691190	565.344407	1038.015932	-458.579937	396.513097	1110.684409	-617.868973	394.213730	1105.818081	-505.968357	406.371677	1539.256620	-563.572145	383.889330	1303.694393	-562.833967	541.938144	1495.237316	-559.754097	611.094579	1324.185753	-557.398661	485.023315	899.033294	-388.196629	576.154574	792.155012	-457.748272	483.641242	695.294399	-386.836973	468.142202	413.238603	-480.738671	412.200079	332.152074	-377.184459	435.186241	222.170209	-461.322729	312.410176	 57.155608	-438.285677	553.958514	 59.597717	-431.133367	527.894707	 55.994479	-352.210266	449.595887	862.876034	-746.436327	549.592123	748.079392	-710.784636	427.228345	665.072823	-737.479986	460.079641	416.773074	-669.678558	386.610777	338.670788	-764.101974	423.790780	222.071911	-682.471181	302.164205	 60.565320	-702.971401	548.096199	 54.424971	-701.438000	515.903989	 52.319831	-794.801487	470.269290	503.072874	-413.170230	482.043196	489.686802	-515.871241	438.782140	511.759123	-727.427968	453.660044	508.929283	-625.667398	414.642767	107.396768	-471.931636	393.397250	108.613321	-384.997492	425.260506	118.607236	-676.981665	377.622043	109.579098	-757.853975	302.164205	  0.000000	-702.971401	548.096199	  0.000000	-701.438000	515.903989	  0.000000	-794.801487	312.410176	  0.000000	-438.285677	553.958514	  0.000000	-431.133367	527.894707	  0.000000	-352.210266	401.441275	114.093167	-717.417820	446.221092	510.344203	-676.547683	566.375192	1038.205281	-561.635590	404.019995	108.005042	-428.464552	476.156243	496.379838	-464.520735	496.181610	996.237320	-632.012125	495.692468	995.607896	-492.132000	395.363413	1108.251245	-561.918664	385.332836	119.523697	-708.535292	485.868674	952.025451	-661.236141	446.221105	510.344203	-676.547709	372.819184	115.779362	-755.717837	438.782140	511.759123	-727.427968	397.846487	123.268033	-661.352745	453.660044	508.929283	-625.667398	397.562745	104.981150	-430.000285	485.394886	949.202812	-473.065842	476.156256	496.379852	-464.520733	386.146774	101.590953	-386.671100	470.269290	503.072874	-413.170230	408.978717	108.371348	-473.329496	482.043196	489.686802	-515.871241	485.394886	949.202812	-473.065842	485.868674	952.025451	-661.236141	404.019995	  0.000000	-428.464552	401.441275	  0.000000	-717.417820	
3	0.012	567.301597	1038.411831	-664.703615	565.320423	1038.029072	-458.592059	396.415703	1110.672025	-617.837601	394.169252	1105.804270	-505.935868	406.222267	1539.256268	-563.566630	383.783827	1303.671057	-562.804104	541.790168	1495.230842	-559.784738	610.987271	1324.206315	-557.439983	485.021377	899.030831	-388.196306	576.139644	792.160723	-457.764067	483.651128	695.291558	-386.837014	468.150901	413.233190	-480.736793	412.204676	332.146519	-377.185586	435.186565	222.162095	-461.320972	312.406028	 57.155900	-438.286968	553.958196	 59.600013	-431.135011	527.897527	 55.990407	-352.224862	449.503219	862.873405	-746.419835	549.543879	748.090418	-710.801219	427.187141	665.064551	-737.466665	460.085097	416.759999	-669.673416	386.606152	338.658663	-764.094007	423.785345	222.064021	-682.476524	302.159652	 60.556409	-702.964418	548.093475	 54.428603	-701.439164	515.905432	 52.325043	-794.804411	470.283067	503.070475	-413.166949	482.036138	489.685357	-515.870443	438.783574	511.750028	-727.424907	453.692288	508.918949	-625.668943	414.640121	107.395018	-471.932134	393.403493	108.614961	-385.012669	425.243060	118.598967	-676.977805	377.617968	109.593814	-757.885680	302.159652	  0.000000	-702.964418	548.093475	  0.000000	-701.439164	515.905432	  0.000000	-794.804411	312.406028	  0.000000	-438.286968	553.958196	  0.000000	-431.135011	527.897527	  0.000000	-352.224862	401.430514	114.096390	-717.431743	446.237931	510.334489	-676.546925	566.311035	1038.220454	-561.647860	404.021794	108.004987	-428.472391	476.159602	496.377916	-464.518696	496.106362	996.238900	-632.004131	495.655150	995.613629	-492.123938	395.292477	1108.238147	-561.886734	385.318262	119.514417	-708.550621	485.790529	952.025319	-661.224436	446.237943	510.334489	-676.546949	372.799602	115.773466	-755.738326	438.783574	511.750028	-727.424907	397.836919	123.255367	-661.362912	453.692288	508.918949	-625.668943	397.560927	104.977020	-430.008426	485.371653	949.206835	-473.054065	476.159614	496.377928	-464.518694	386.146188	101.587862	-386.687137	470.283067	503.070475	-413.166949	408.975665	108.366177	-473.329738	482.036138	489.685357	-515.870443	485.371653	949.206835	-473.054065	485.790529	952.025319	-661.224436	404.021794	  0.000000	-428.472391	401.430514	  0.000000	-717.431743	
4	0.016	567.194330	1038.429462	-664.716728	565.296309	1038.042653	-458.604547	396.315539	1110.659033	-617.805718	394.123520	1105.789857	-505.903196	406.069217	1539.255792	-563.560843	383.674961	1303.646843	-562.774210	541.638802	1495.224693	-559.815053	610.876310	1324.226614	-557.481027	485.019505	899.028384	-388.196530	576.124630	792.166823	-457.780973	483.661778	695.288759	-386.837299	468.160213	413.227408	-480.735125	412.209904	332.140792	-377.186908	435.187084	222.153674	-461.319343	312.401900	 57.156099	-438.288106	553.957805	 59.602287	-431.136697	527.900294	 55.986442	-352.239210	449.408712	862.870534	-746.403365	549.494993	748.101929	-710.818645	427.145795	665.055869	-737.453508	460.091512	416.746316	-669.668379	386.602459	338.646220	-764.086018	423.780151	222.055936	-682.481921	302.155093	 60.547297	-702.957594	548.090609	 54.432248	-701.440375	515.906763	 52.330255	-794.807197	470.298063	503.068071	-413.163540	482.029554	489.683795	-515.869586	438.786202	511.740583	-727.422307	453.726422	508.908251	-625.671057	414.637415	107.393201	-471.932699	393.409543	108.616506	-385.027303	425.225075	118.590301	-676.973724	377.614405	109.607871	-757.917279	302.155093	  0.000000	-702.957594	548.090609	  0.000000	-701.440375	515.906763	  0.000000	-794.807197	312.401900	  0.000000	-438.288106	553.957805	  0.000000	-431.136697	527.900294	  0.000000	-352.239210	401.419740	114.099086	-717.445502	446.256312	510.324417	-676.546682	566.245342	1038.236060	-561.660658	404.023467	108.004851	-428.479991	476.163809	496.375933	-464.516563	496.029381	996.240271	-631.996092	495.616987	995.619580	-492.115830	395.219529	1108.224445	-561.854457	385.303559	119.504915	-708.565990	485.710617	952.024874	-661.212513	446.256323	510.324417	-676.546703	372.780032	115.767404	-755.758563	438.786202	511.740583	-727.422307	397.827082	123.242427	-661.373412	453.726422	508.908251	-625.671057	397.559009	104.972678	-430.016320	485.348092	949.211029	-473.042067	476.163818	496.375944	-464.516561	386.145484	101.584571	-386.702614	470.298063	503.068071	-413.163540	408.972533	108.360785	-473.330047	482.029554	489.683795	-515.869586	485.348092	949.211029	-473.042067	485.710617	952.024874	-661.212513	404.023467	  0.000000	-428.479991	401.419740	  0.000000	-717.445502	
